<?xml version="1.0" encoding="UTF-8"?>
<svg xmlns="http://www.w3.org/2000/svg" xmlns:xlink="http://www.w3.org/1999/xlink" viewBox="0 0 60 60" width="60px" height="60px">
<g id="surface242666387">
<path style=" stroke:none;fill-rule:nonzero;fill:rgb(18.039216%,80.000001%,44.313726%);fill-opacity:1;" d="M 45.65625 6 C 44.632812 6 43.609375 6.390625 42.828125 7.171875 L 38 12 L 48 22 L 52.828125 17.171875 C 54.390625 15.609375 54.390625 13.078125 52.828125 11.515625 L 48.484375 7.171875 C 47.703125 6.390625 46.679688 6 45.65625 6 Z M 34 16 L 10.519531 39.480469 C 10.519531 39.480469 12.355469 39.316406 13.039062 40 C 13.722656 40.683594 13.160156 45.160156 14 46 C 14.839844 46.839844 19.289062 46.25 19.925781 46.886719 C 20.5625 47.523438 20.519531 49.480469 20.519531 49.480469 L 44 26 Z M 8 46 L 6.113281 51.34375 C 6.039062 51.554688 6 51.777344 6 52 C 6 53.105469 6.894531 54 8 54 C 8.222656 54 8.445312 53.960938 8.65625 53.886719 C 8.664062 53.882812 8.667969 53.882812 8.675781 53.878906 L 8.726562 53.863281 C 8.730469 53.859375 8.734375 53.859375 8.738281 53.855469 L 14 52 Z M 8 46 "/>
</g>
</svg>
