<?xml version="1.0" encoding="UTF-8"?>
<svg xmlns="http://www.w3.org/2000/svg" xmlns:xlink="http://www.w3.org/1999/xlink" viewBox="0 0 48 48" width="48px" height="48px">
<g id="surface242212159">
<path style=" stroke:none;fill-rule:nonzero;fill:rgb(90.588236%,29.803923%,23.529412%);fill-opacity:1;" d="M 20 4 L 18 6 L 8 6 L 8 10 L 10 10 L 10 40 C 10 41.042969 10.382812 42.109375 11.136719 42.863281 C 11.890625 43.617188 12.957031 44 14 44 L 34 44 C 35.042969 44 36.109375 43.617188 36.863281 42.863281 C 37.617188 42.109375 38 41.042969 38 40 L 38 10 L 40 10 L 40 6 L 30 6 L 28 4 Z M 14 10 L 34 10 L 34 40 L 14 40 Z M 18 14 L 18 36 L 22 36 L 22 14 Z M 26 14 L 26 36 L 30 36 L 30 14 Z M 26 14 "/>
</g>
</svg>
